<svg xmlns="http://www.w3.org/2000/svg" width="614.6" height="207.53"><path d="M187.66 115.04c14.48 24.32 28.71 48.19 42.88 72.09 2.11 3.57 4.35 7.14 5.82 10.98 1.8 4.69-.28 7.73-5.24 8.62-1.63.29-3.31.36-4.97.36-20.66.02-41.33-.11-61.99.1-5.39.05-8.61-2.09-11.07-6.73-10.12-19.11-20.58-38.06-30.66-57.19-3.65-6.92-8.77-10.42-16.72-10.22-10.11.26-20.23.06-31.37.06 0 5.13.03 10.07 0 15.02-.1 16.49-.21 32.99-.33 49.48-.05 7.05-2.29 9.45-9.2 9.48-18.5.07-36.99.05-55.49.01-6.55-.02-9.25-2.8-9.28-9.57-.06-14.16-.02-28.33-.02-42.49V11.57C.02 3.21 2.58.63 11.05.62 57.53.6 104.02.5 150.5.65c32.65.1 57.32 18.8 64.2 48.68 4.71 20.44 1.13 48.06-24.24 63.69-.84.5-1.6 1.14-2.8 2.02zM73.58 48.63v37.94c15.51 0 30.65.49 45.72-.26 5.52-.28 11.46-2.59 16.22-5.57 11.96-7.47 10.85-22.58-1.84-28.73-3.52-1.71-7.56-3.15-11.4-3.24-16.09-.34-32.2-.14-48.7-.14zm502.04 158.81c-8.83 0-17.66-.23-26.48.08-6.41.22-10.69-1.87-13.36-8.03-2.84-6.54-6.31-12.84-9.93-19-.94-1.6-3.43-3.22-5.22-3.23-30.31-.2-60.63-.2-90.94.01-1.78.01-4.25 1.72-5.19 3.34-3.82 6.62-7.25 13.47-10.67 20.31-2.26 4.53-5.71 6.59-10.76 6.56-17.16-.09-34.31.02-51.47-.06-9.87-.05-12.99-5.42-8.14-13.93 35.58-62.44 71.2-124.86 106.76-187.32 2.29-4.02 5.44-6.08 10.06-6.07 14.32.03 28.65.1 42.97-.04 5.56-.05 8.3 3.19 10.62 7.58 24.69 46.58 49.45 93.12 74.18 139.68 8.12 15.27 16.23 30.55 24.34 45.82 4.75 8.94 1.7 14.24-8.31 14.29-9.47.05-18.97.01-28.46.01zm-125.03-76.96h49.51c-8.29-16.05-16.32-31.58-24.85-48.09-8.44 16.45-16.4 31.98-24.66 48.09z"/><path d="M188.33.65c2.21-.18 4.42-.52 6.63-.53C208.12.07 221.28.3 234.44 0c5.74-.13 9.22 2.18 12.1 6.95 18.6 30.76 37.38 61.4 56.1 92.08.86 1.4 1.77 2.77 2.99 4.67 7.45-12.54 14.64-24.63 21.83-36.73 11.73-19.74 23.53-39.44 35.11-59.26C365.55 2.6 369.2.15 375.42.29c16.98.38 33.98.11 50.97.14 10.28.01 13.41 5.16 8.39 13.97-35.17 61.73-70.41 123.41-105.52 185.17-2.95 5.18-6.56 7.66-12.8 7.32-9.3-.51-18.66-.44-27.97-.02-5.78.26-8.85-2.51-11.4-7.07-17.24-30.76-34.33-61.61-52.03-92.11-4.39-7.56-5.45-13.94-2.81-22.56 9.5-31.05-1.69-66.54-32.94-82.85-.44-.23-.87-.46-1.31-.7.1-.3.21-.61.33-.93z"/></svg>