<?xml version="1.0" standalone="no"?>
<!DOCTYPE svg PUBLIC "-//W3C//DTD SVG 20010904//EN"
 "http://www.w3.org/TR/2001/REC-SVG-20010904/DTD/svg10.dtd">
<svg version="1.0" xmlns="http://www.w3.org/2000/svg"
 width="260.000000pt" height="260.000000pt" viewBox="0 0 260.000000 260.000000"
 preserveAspectRatio="xMidYMid meet">
<metadata>
Created by potrace 1.11, written by Peter Selinger 2001-2013
</metadata>
<g transform="translate(0.000000,260.000000) scale(0.100000,-0.100000)"
fill="#000000" stroke="none">
<path d="M268 1654 c-17 -5 -18 -31 -18 -354 0 -308 2 -349 16 -354 22 -9 207
-7 220 2 7 4 15 56 19 130 l8 122 56 0 c32 0 65 -6 74 -12 9 -7 42 -60 73
-118 31 -58 63 -111 72 -117 10 -9 53 -13 128 -13 122 0 144 4 144 27 0 8 -36
75 -80 148 -44 73 -80 137 -80 143 0 5 11 17 24 25 35 23 66 95 66 153 -1 88
-51 164 -135 201 -35 15 -76 18 -305 19 -146 2 -273 0 -282 -2z m453 -191 c16
-15 20 -28 15 -47 -10 -40 -53 -56 -151 -56 l-85 0 0 66 0 66 100 -4 c86 -3
102 -6 121 -25z"/>
<path d="M900 1653 c0 -5 16 -21 35 -36 68 -54 95 -142 75 -237 l-13 -59 98
-173 c53 -95 103 -179 110 -187 8 -8 37 -13 81 -13 56 0 71 3 84 19 9 11 99
165 200 343 214 376 211 350 49 350 -78 0 -101 -3 -116 -17 -11 -10 -62 -89
-113 -176 -51 -87 -96 -154 -101 -150 -4 4 -49 76 -99 158 -51 83 -99 158
-108 168 -12 14 -32 17 -99 17 -45 0 -83 -3 -83 -7z"/>
<path d="M1787 1628 c-13 -18 -104 -174 -202 -347 -207 -364 -204 -341 -49
-341 51 0 100 3 109 6 9 4 27 28 41 55 l24 49 165 0 165 0 24 -49 c14 -27 32
-51 41 -55 21 -8 208 -8 229 0 9 3 16 14 16 24 0 22 -338 661 -358 678 -10 7
-47 12 -98 12 -82 0 -83 0 -107 -32z m128 -338 c19 -38 35 -72 35 -75 0 -3
-34 -5 -75 -5 -41 0 -75 2 -75 5 0 10 70 145 75 145 3 0 21 -31 40 -70z"/>
</g>
</svg>
